<svg width="62" height="62" viewBox="0 0 62 62" fill="none" xmlns="http://www.w3.org/2000/svg">
<path fill-rule="evenodd" clip-rule="evenodd" d="M51.7895 16.4086C52.3707 16.99 52.6972 17.7783 52.6972 18.6003C52.6972 19.4223 52.3707 20.2107 51.7895 20.792L26.9895 45.592C26.4082 46.1732 25.6199 46.4997 24.7978 46.4997C23.9758 46.4997 23.1875 46.1732 22.6061 45.592L10.2061 33.192C9.64145 32.6073 9.32899 31.8243 9.33605 31.0115C9.34312 30.1987 9.66914 29.4211 10.2439 28.8464C10.8187 28.2716 11.5962 27.9456 12.409 27.9385C13.2218 27.9315 14.0049 28.2439 14.5895 28.8086L24.7978 39.0169L47.4061 16.4086C47.9875 15.8275 48.7758 15.501 49.5978 15.501C50.4199 15.501 51.2082 15.8275 51.7895 16.4086Z" fill="#AAAAAA"/>
</svg>
